<svg width="129" height="103" viewBox="0 0 129 103" fill="none" xmlns="http://www.w3.org/2000/svg">
<path fill-rule="evenodd" clip-rule="evenodd" d="M115.64 6.34039V69.7804C115.64 72.3704 113.54 74.4704 110.95 74.4704H5.97003C3.39003 74.4704 1.29004 72.3704 1.29004 69.7804V6.34039C1.29004 3.75039 3.39003 1.65039 5.97003 1.65039H110.95C113.54 1.65039 115.64 3.75039 115.64 6.34039Z" fill="white"/>
<path d="M111.35 75.4804H5.57004C2.66004 75.4804 0.290039 72.9304 0.290039 69.7904V6.34039C0.290039 3.20039 2.66004 0.650391 5.57004 0.650391H111.35C114.27 0.650391 116.64 3.20039 116.64 6.34039V43.2104C116.64 43.7604 116.19 44.2104 115.64 44.2104C115.09 44.2104 114.64 43.7604 114.64 43.2104V6.34039C114.64 4.30039 113.16 2.65039 111.35 2.65039H5.57004C3.76004 2.65039 2.29004 4.31039 2.29004 6.34039V69.7904C2.29004 71.8304 3.76004 73.4804 5.57004 73.4804H111.35C113.16 73.4804 114.64 71.8204 114.64 69.7904V65.2704C114.64 64.7204 115.09 64.2704 115.64 64.2704C116.19 64.2704 116.64 64.7204 116.64 65.2704V69.7904C116.64 72.9304 114.27 75.4804 111.35 75.4804Z" fill="#2F3F64"/>
<path d="M125.37 65.6104H88.6296C87.2544 65.6104 86.1396 66.7252 86.1396 68.1003V98.8204C86.1396 100.196 87.2544 101.31 88.6296 101.31H125.37C126.745 101.31 127.86 100.196 127.86 98.8204V68.1003C127.86 66.7252 126.745 65.6104 125.37 65.6104Z" fill="#FEC95C"/>
<path d="M125.11 102.301H88.8696C86.8096 102.301 85.1396 100.631 85.1396 98.5706V68.3406C85.1396 66.2806 86.8196 64.6006 88.8696 64.6006H119.28C119.83 64.6006 120.28 65.0506 120.28 65.6006C120.28 66.1506 119.83 66.6006 119.28 66.6006H88.8696C87.9096 66.6006 87.1396 67.3806 87.1396 68.3406V98.5706C87.1396 99.5306 87.9196 100.301 88.8696 100.301H125.11C126.08 100.301 126.86 99.5106 126.86 98.5506V74.6206C126.86 74.0706 127.31 73.6206 127.86 73.6206C128.41 73.6206 128.86 74.0706 128.86 74.6206V98.5506C128.86 100.621 127.18 102.301 125.11 102.301Z" fill="#2F3F64"/>
<path d="M115.639 66.6102C115.089 66.6102 114.639 66.1602 114.639 65.6102V59.4202C114.639 54.5902 110.709 50.6602 105.879 50.6602C101.049 50.6602 97.1191 54.5902 97.1191 59.4202V65.6102C97.1191 66.1602 96.6691 66.6102 96.1191 66.6102C95.5691 66.6102 95.1191 66.1602 95.1191 65.6102V59.4202C95.1191 53.4902 99.9492 48.6602 105.879 48.6602C111.809 48.6602 116.639 53.4902 116.639 59.4202V65.6102C116.639 66.1602 116.189 66.6102 115.639 66.6102Z" fill="#2F3F64"/>
<path d="M111.4 79.0101C111.4 76.4201 109.16 74.3501 106.51 74.6501C104.53 74.8701 102.91 76.4601 102.66 78.4401C102.39 80.6001 103.68 82.4901 105.56 83.1501V87.4001C105.56 88.0501 106.09 88.5701 106.73 88.5701H107.29C107.94 88.5701 108.46 88.0401 108.46 87.4001V83.1501C110.17 82.5501 111.39 80.9301 111.39 79.0101H111.4Z" fill="#2F3F64"/>
<path d="M22.1 16.7405C21.75 16.1005 21.27 15.6205 20.66 15.2805C20.05 14.9505 19.34 14.7805 18.53 14.7805C17.63 14.7805 16.83 14.9805 16.14 15.3905C15.44 15.8005 14.9 16.3805 14.51 17.1305C14.12 17.8805 13.92 18.7505 13.92 19.7405C13.92 20.7305 14.12 21.6405 14.52 22.4005C14.92 23.1505 15.47 23.7305 16.19 24.1405C16.9 24.5505 17.73 24.7505 18.67 24.7505C19.83 24.7505 20.78 24.4405 21.52 23.8205C22.26 23.2005 22.75 22.3405 22.98 21.2405H17.76V18.9105H25.99V21.5605C25.79 22.6205 25.35 23.6005 24.68 24.5005C24.01 25.4005 23.15 26.1205 22.1 26.6705C21.05 27.2105 19.87 27.4905 18.56 27.4905C17.09 27.4905 15.77 27.1605 14.59 26.5005C13.41 25.8405 12.48 24.9205 11.8 23.7505C11.13 22.5705 10.79 21.2405 10.79 19.7505C10.79 18.2605 11.13 16.9205 11.8 15.7305C12.47 14.5505 13.4 13.6305 14.59 12.9705C15.77 12.3105 17.09 11.9805 18.54 11.9805C20.25 11.9805 21.74 12.4005 23 13.2305C24.26 14.0605 25.13 15.2405 25.61 16.7405H22.11H22.1Z" fill="#2F3F64"/>
<path d="M38.7404 19.1502C38.3604 19.8602 37.7505 20.4302 36.9305 20.8702C36.1105 21.3102 35.0804 21.5202 33.8304 21.5202H31.2805V27.3502H28.2305V12.1602H33.8205C35.0005 12.1602 36.0005 12.3602 36.8205 12.7702C37.6405 13.1802 38.2705 13.7302 38.6805 14.4502C39.0905 15.1702 39.3004 15.9702 39.3004 16.8702C39.3004 17.6802 39.1105 18.4402 38.7205 19.1602L38.7404 19.1502ZM35.5705 18.4902C35.9805 18.1102 36.1805 17.5702 36.1805 16.8702C36.1805 15.3902 35.3505 14.6502 33.7005 14.6502H31.2805V19.0702H33.7005C34.5405 19.0702 35.1705 18.8802 35.5705 18.4902Z" fill="#2F3F64"/>
<path d="M50.9897 13.1009C52.1997 13.7209 53.1397 14.6109 53.7997 15.7709C54.4597 16.9209 54.7897 18.2609 54.7897 19.7909C54.7897 21.3209 54.4597 22.6409 53.7997 23.7809C53.1397 24.9209 52.1997 25.8009 50.9897 26.4209C49.7797 27.0409 48.3697 27.3609 46.7797 27.3609H41.4697V12.1709H46.7797C48.3797 12.1709 49.7797 12.4809 50.9897 13.1109V13.1009ZM50.3697 23.4609C51.2397 22.5909 51.6797 21.3609 51.6797 19.7809C51.6797 18.2009 51.2397 16.9609 50.3697 16.0709C49.4997 15.1809 48.2697 14.7309 46.6697 14.7309H44.5197V24.7609H46.6697C48.2697 24.7609 49.4997 24.3209 50.3697 23.4509V23.4609Z" fill="#2F3F64"/>
<path d="M64.9103 27.3609L61.5603 21.4409H60.1203V27.3609H57.0703V12.1709H62.7703C63.9503 12.1709 64.9503 12.3809 65.7703 12.7909C66.6003 13.2009 67.2203 13.7609 67.6303 14.4709C68.0403 15.1709 68.2503 15.9609 68.2503 16.8309C68.2503 17.8309 67.9603 18.7309 67.3803 19.5409C66.8003 20.3509 65.9403 20.9009 64.7903 21.2009L68.4203 27.3609H64.8903H64.9103ZM60.1203 19.1509H62.6703C63.5003 19.1509 64.1103 18.9509 64.5203 18.5509C64.9303 18.1509 65.1303 17.6009 65.1303 16.8809C65.1303 16.1609 64.9303 15.6409 64.5203 15.2609C64.1103 14.8809 63.5003 14.6809 62.6703 14.6809H60.1203V19.1409V19.1509Z" fill="#2F3F64"/>
<path d="M88.9598 32.8301H13.4198C12.3871 32.8301 11.5498 33.6673 11.5498 34.7001V37.4201C11.5498 38.4528 12.3871 39.2901 13.4198 39.2901H88.9598C89.9926 39.2901 90.8298 38.4528 90.8298 37.4201V34.7001C90.8298 33.6673 89.9926 32.8301 88.9598 32.8301Z" fill="#BCC5DC"/>
<path d="M90.8298 46.6699H12.5498C11.9998 46.6699 11.5498 46.2199 11.5498 45.6699C11.5498 45.1199 11.9998 44.6699 12.5498 44.6699H90.8298C91.3798 44.6699 91.8298 45.1199 91.8298 45.6699C91.8298 46.2199 91.3798 46.6699 90.8298 46.6699Z" fill="#BCC5DC"/>
<path d="M90.8298 52.4707H12.5498C11.9998 52.4707 11.5498 52.0207 11.5498 51.4707C11.5498 50.9207 11.9998 50.4707 12.5498 50.4707H90.8298C91.3798 50.4707 91.8298 50.9207 91.8298 51.4707C91.8298 52.0207 91.3798 52.4707 90.8298 52.4707Z" fill="#BCC5DC"/>
<path d="M90.8298 58.2705H12.5498C11.9998 58.2705 11.5498 57.8205 11.5498 57.2705C11.5498 56.7205 11.9998 56.2705 12.5498 56.2705H90.8298C91.3798 56.2705 91.8298 56.7205 91.8298 57.2705C91.8298 57.8205 91.3798 58.2705 90.8298 58.2705Z" fill="#BCC5DC"/>
<path d="M55.39 64.0703H12.54C11.99 64.0703 11.54 63.6203 11.54 63.0703C11.54 62.5203 11.99 62.0703 12.54 62.0703H55.39C55.94 62.0703 56.39 62.5203 56.39 63.0703C56.39 63.6203 55.94 64.0703 55.39 64.0703Z" fill="#BCC5DC"/>
</svg>
