<?xml version="1.0" encoding="UTF-8"?>
<svg id="Layer_2" data-name="Layer 2" xmlns="http://www.w3.org/2000/svg" viewBox="0 0 121.94 127.41">
  <defs>
    <style>
      .cls-1 {
        fill: #fec95c;
      }

      .cls-2 {
        fill: #fff;
      }

      .cls-3 {
        fill: #bcc5dc;
      }

      .cls-4 {
        fill: #2f3f64;
      }
    </style>
  </defs>
  <g id="Layer_1-2" data-name="Layer 1">
    <g>
      <g>
        <path class="cls-4" d="M19.25,83.06c-.33,0-.65-.16-.84-.46-4.69-7.37-7.17-15.91-7.17-24.69,0-25.4,20.66-46.06,46.06-46.06s46.06,20.66,46.06,46.06c0,.55-.45,1-1,1s-1-.45-1-1c0-24.29-19.76-44.06-44.06-44.06S13.24,33.61,13.24,57.9c0,8.4,2.37,16.57,6.86,23.62.3.47.16,1.08-.31,1.38-.17.11-.35.16-.54.16Z"/>
        <g>
          <path class="cls-3" d="M11.1,109.16c1.3-17.44,21.5-31.33,46.2-31.33s44.9,13.88,46.2,31.33c-.37,2.2-2.28,3.87-4.56,3.87H15.66c-2.29,0-4.19-1.67-4.56-3.87ZM57.29,36.56c11.27,0,20.4,9.24,20.4,20.63s-9.13,20.63-20.4,20.63-20.4-9.24-20.4-20.63,9.13-20.63,20.4-20.63Z"/>
          <path class="cls-4" d="M98.93,114.03H15.66c-2.75,0-5.08-1.98-5.55-4.7-.01-.08-.02-.16-.01-.24,1.35-18.09,22.08-32.26,47.19-32.26,10.96,0,21.63,2.77,30.07,7.79.47.28.63.9.35,1.37-.28.47-.9.63-1.37.35-8.13-4.84-18.45-7.51-29.04-7.51-24.01,0-43.83,13.29-45.19,30.28.34,1.7,1.82,2.92,3.55,2.92h83.27c1.77,0,3.28-1.28,3.57-3.04.09-.54.61-.91,1.15-.82.54.09.91.61.82,1.15-.46,2.73-2.8,4.7-5.55,4.7Z"/>
          <path class="cls-4" d="M57.29,78.82c-11.8,0-21.4-9.7-21.4-21.63s9.6-21.63,21.4-21.63,21.4,9.7,21.4,21.63-9.6,21.63-21.4,21.63ZM57.29,37.56c-10.7,0-19.4,8.81-19.4,19.63s8.7,19.63,19.4,19.63,19.4-8.81,19.4-19.63-8.7-19.63-19.4-19.63Z"/>
        </g>
        <g>
          <rect class="cls-1" x="73.5" y="85.83" width="47.44" height="40.59" rx="2.49" ry="2.49"/>
          <path class="cls-4" d="M117.81,127.41h-41.2c-2.27,0-4.11-1.84-4.11-4.11v-34.37c0-2.27,1.84-4.11,4.11-4.11h33.71c.55,0,1,.45,1,1s-.45,1-1,1h-33.71c-1.16,0-2.11.95-2.11,2.11v34.37c0,1.16.95,2.11,2.11,2.11h41.2c1.17,0,2.13-.96,2.13-2.13v-27.21c0-.55.45-1,1-1s1,.45,1,1v27.21c0,2.28-1.85,4.13-4.13,4.13Z"/>
          <path class="cls-4" d="M107.04,86.83c-.55,0-1-.45-1-1v-7.04c0-5.57-4.53-10.09-10.09-10.09s-10.09,4.53-10.09,10.09v7.04c0,.55-.45,1-1,1s-1-.45-1-1v-7.04c0-6.67,5.42-12.09,12.09-12.09s12.09,5.42,12.09,12.09v7.04c0,.55-.45,1-1,1Z"/>
          <path class="cls-4" d="M102.21,101.07c0-2.95-2.55-5.3-5.56-4.96-2.25.25-4.09,2.06-4.38,4.31-.31,2.45,1.16,4.61,3.29,5.36v4.83c0,.74.6,1.34,1.34,1.34h.64c.74,0,1.34-.6,1.34-1.34v-4.83c1.94-.68,3.34-2.53,3.34-4.71Z"/>
        </g>
        <g>
          <circle class="cls-2" cx="15.56" cy="40.36" r="14.56"/>
          <path class="cls-4" d="M15.56,55.92c-8.58,0-15.56-6.98-15.56-15.56s6.98-15.56,15.56-15.56,15.56,6.98,15.56,15.56-6.98,15.56-15.56,15.56ZM15.56,26.81c-7.47,0-13.56,6.08-13.56,13.56s6.08,13.56,13.56,13.56,13.56-6.08,13.56-13.56-6.08-13.56-13.56-13.56Z"/>
        </g>
        <g>
          <circle class="cls-2" cx="98.96" cy="36.32" r="14.56"/>
          <path class="cls-4" d="M98.96,51.88c-8.58,0-15.56-6.98-15.56-15.56s6.98-15.56,15.56-15.56,15.56,6.98,15.56,15.56-6.98,15.56-15.56,15.56ZM98.96,22.77c-7.47,0-13.56,6.08-13.56,13.56s6.08,13.56,13.56,13.56,13.56-6.08,13.56-13.56-6.08-13.56-13.56-13.56Z"/>
        </g>
        <g>
          <circle class="cls-2" cx="55.91" cy="15.56" r="14.56"/>
          <path class="cls-4" d="M55.91,31.11c-8.58,0-15.56-6.98-15.56-15.56S47.33,0,55.91,0s15.56,6.98,15.56,15.56-6.98,15.56-15.56,15.56ZM55.91,2c-7.47,0-13.56,6.08-13.56,13.56s6.08,13.56,13.56,13.56,13.56-6.08,13.56-13.56-6.08-13.56-13.56-13.56Z"/>
        </g>
      </g>
      <g>
        <g>
          <path id="path25468" class="cls-3" d="M98.88,45.51l3.05-2.2-.14-17.46-2.91,2.27v17.39h0Z"/>
          <path id="path25470" class="cls-4" d="M98.92,45.51c-11.42-1.82-11.74-11.75-.07-13.91l.04,2.06c-8.28,1.38-7.23,8.81,0,9.9l.04,1.95Z"/>
          <path id="path25472" class="cls-4" d="M101.9,33.58c1.41,0,2.64.66,3.87,1.31l-1.81,1.35h5.79l.04-3.94-1.81,1.35c-1.83-.93-3.52-2.04-6.07-2.06v1.99h0Z"/>
        </g>
        <path class="cls-4" d="M23.68,41.03c0,4.71-3.23,8.06-7.99,8.06s-8.26-3.69-8.26-8.26,3.69-8.26,8.26-8.26c2.22,0,4.1.82,5.54,2.16l-2.25,2.16c-2.94-2.84-8.41-.71-8.41,3.94,0,2.88,2.3,5.21,5.12,5.21,3.27,0,4.49-2.34,4.69-3.56h-4.69v-2.84h7.86c.08.42.13.83.13,1.38h0Z"/>
        <g>
          <path class="cls-4" d="M49.95,21.66c.45.28,1.2.59,1.99.59.72,0,1.39-.21,1.94-.56,0,0,0,0,0,0l2.09-1.31v4.71c-.33,0-.66-.09-.95-.27l-5.06-3.16h0Z"/>
          <path class="cls-3" d="M54.63,7.16l-8.68,9.79c-.67.76-.5,1.9.37,2.44,0,0,3.21,2.01,3.62,2.26.45.28,1.2.59,1.99.59.72,0,1.39-.21,1.94-.56,0,0,0,0,0,0l2.09-1.31-5.05-3.16,5.05-5.7v-4.95h0c-.49,0-.98.2-1.33.59h0Z"/>
          <polygon class="cls-2" points="50.91 17.22 50.97 17.26 55.96 20.38 55.96 20.38 55.96 20.38 55.96 11.52 55.96 11.52 50.91 17.22"/>
          <path class="cls-4" d="M65.6,19.4c.87-.54,1.04-1.69.37-2.44l-5.7-6.43c-.46-.21-.97-.34-1.52-.34-1.07,0-2.03.46-2.66,1.19l-.13.14h0l5.05,5.7h0l-5.05,3.16v4.71c.33,0,.66-.09.95-.27l8.68-5.43h0s0,0,0,0Z"/>
          <path class="cls-3" d="M55.96,6.57v4.95l.13-.14c.64-.73,1.59-1.19,2.66-1.19.55,0,1.06.12,1.52.34l-2.99-3.37c-.35-.39-.84-.59-1.33-.59h0Z"/>
          <polygon class="cls-3" points="61.01 17.22 61.01 17.22 61.01 17.22 55.96 11.52 55.96 20.38 61.01 17.22"/>
        </g>
      </g>
    </g>
  </g>
</svg>