<svg width="123" height="129" viewBox="0 0 123 129" fill="none" xmlns="http://www.w3.org/2000/svg">
<path d="M19.6995 83.7403C19.3695 83.7403 19.0495 83.5803 18.8595 83.2803C14.1695 75.9103 11.6895 67.3703 11.6895 58.5903C11.6895 33.1903 32.3495 12.5303 57.7495 12.5303C83.1495 12.5303 103.81 33.1903 103.81 58.5903C103.81 59.1403 103.36 59.5903 102.81 59.5903C102.26 59.5903 101.81 59.1403 101.81 58.5903C101.81 34.3003 82.0495 14.5303 57.7495 14.5303C33.4495 14.5303 13.6895 34.2903 13.6895 58.5903C13.6895 66.9903 16.0596 75.1603 20.5496 82.2103C20.8496 82.6803 20.7095 83.2903 20.2395 83.5903C20.0695 83.7003 19.8895 83.7503 19.6995 83.7503V83.7403Z" fill="#2F3F64"/>
<path d="M11.5391 109.84C12.8391 92.4002 33.039 78.5102 57.739 78.5102C82.439 78.5102 102.639 92.3902 103.939 109.84C103.569 112.04 101.659 113.71 99.379 113.71H16.109C13.819 113.71 11.9191 112.04 11.5491 109.84H11.5391ZM57.739 37.2402C69.009 37.2402 78.139 46.4802 78.139 57.8702C78.139 69.2602 69.009 78.5002 57.739 78.5002C46.469 78.5002 37.339 69.2602 37.339 57.8702C37.339 46.4802 46.469 37.2402 57.739 37.2402Z" fill="#BCC5DC"/>
<path d="M99.379 114.71H16.109C13.359 114.71 11.0291 112.73 10.5591 110.01C10.5491 109.93 10.5391 109.85 10.5491 109.77C11.8991 91.6798 32.629 77.5098 57.739 77.5098C68.699 77.5098 79.3691 80.2798 87.8091 85.2998C88.2791 85.5798 88.439 86.1998 88.159 86.6698C87.8791 87.1398 87.2591 87.2998 86.7891 87.0198C78.6591 82.1798 68.339 79.5098 57.749 79.5098C33.739 79.5098 13.9191 92.7998 12.5591 109.79C12.8991 111.49 14.379 112.71 16.109 112.71H99.379C101.149 112.71 102.659 111.43 102.949 109.67C103.039 109.13 103.559 108.76 104.099 108.85C104.639 108.94 105.009 109.46 104.919 110C104.459 112.73 102.119 114.7 99.369 114.7L99.379 114.71Z" fill="#2F3F64"/>
<path d="M57.7389 79.5002C45.9389 79.5002 36.3389 69.8002 36.3389 57.8702C36.3389 45.9402 45.9389 36.2402 57.7389 36.2402C69.5389 36.2402 79.1389 45.9402 79.1389 57.8702C79.1389 69.8002 69.5389 79.5002 57.7389 79.5002ZM57.7389 38.2402C47.0389 38.2402 38.3389 47.0502 38.3389 57.8702C38.3389 68.6902 47.0389 77.5002 57.7389 77.5002C68.4389 77.5002 77.1389 68.6902 77.1389 57.8702C77.1389 47.0502 68.4389 38.2402 57.7389 38.2402Z" fill="#2F3F64"/>
<path d="M118.89 86.5098H76.4296C75.0544 86.5098 73.9395 87.6246 73.9395 88.9998V124.61C73.9395 125.985 75.0544 127.1 76.4296 127.1H118.89C120.265 127.1 121.38 125.985 121.38 124.61V88.9998C121.38 87.6246 120.265 86.5098 118.89 86.5098Z" fill="#FEC95C"/>
<path d="M118.259 128.09H77.0593C74.7893 128.09 72.9492 126.25 72.9492 123.98V89.61C72.9492 87.34 74.7893 85.5 77.0593 85.5H110.769C111.319 85.5 111.769 85.95 111.769 86.5C111.769 87.05 111.319 87.5 110.769 87.5H77.0593C75.8993 87.5 74.9492 88.45 74.9492 89.61V123.98C74.9492 125.14 75.8993 126.09 77.0593 126.09H118.259C119.429 126.09 120.389 125.13 120.389 123.96V96.75C120.389 96.2 120.839 95.75 121.389 95.75C121.939 95.75 122.389 96.2 122.389 96.75V123.96C122.389 126.24 120.539 128.09 118.259 128.09Z" fill="#2F3F64"/>
<path d="M107.49 87.5099C106.94 87.5099 106.49 87.0599 106.49 86.5099V79.4699C106.49 73.8999 101.96 69.3799 96.3995 69.3799C90.8395 69.3799 86.3096 73.9099 86.3096 79.4699V86.5099C86.3096 87.0599 85.8596 87.5099 85.3096 87.5099C84.7596 87.5099 84.3096 87.0599 84.3096 86.5099V79.4699C84.3096 72.7999 89.7295 67.3799 96.3995 67.3799C103.07 67.3799 108.49 72.7999 108.49 79.4699V86.5099C108.49 87.0599 108.04 87.5099 107.49 87.5099Z" fill="#2F3F64"/>
<path d="M102.659 101.75C102.659 98.7996 100.109 96.4496 97.099 96.7896C94.849 97.0396 93.009 98.8496 92.719 101.1C92.409 103.55 93.879 105.71 96.009 106.46V111.29C96.009 112.03 96.609 112.63 97.349 112.63H97.989C98.729 112.63 99.329 112.03 99.329 111.29V106.46C101.269 105.78 102.669 103.93 102.669 101.75H102.659Z" fill="#2F3F64"/>
<path d="M15.9995 55.5995C24.0408 55.5995 30.5596 49.0808 30.5596 41.0395C30.5596 32.9982 24.0408 26.4795 15.9995 26.4795C7.95825 26.4795 1.43945 32.9982 1.43945 41.0395C1.43945 49.0808 7.95825 55.5995 15.9995 55.5995Z" fill="white"/>
<path d="M15.9995 56.5995C7.41951 56.5995 0.439453 49.6195 0.439453 41.0395C0.439453 32.4595 7.41951 25.4795 15.9995 25.4795C24.5795 25.4795 31.5596 32.4595 31.5596 41.0395C31.5596 49.6195 24.5795 56.5995 15.9995 56.5995ZM15.9995 27.4795C8.52951 27.4795 2.43945 33.5595 2.43945 41.0395C2.43945 48.5195 8.51951 54.5995 15.9995 54.5995C23.4795 54.5995 29.5596 48.5195 29.5596 41.0395C29.5596 33.5595 23.4795 27.4795 15.9995 27.4795Z" fill="#2F3F64"/>
<path d="M9.99927 46.9595C10.4493 47.2395 11.1892 47.5495 11.9792 47.5495C12.6992 47.5495 13.3593 47.3395 13.9093 46.9895L15.9893 45.6895V50.3895C15.6593 50.3895 15.3293 50.2995 15.0393 50.1195L9.98926 46.9695L9.99927 46.9595Z" fill="#2F3F64"/>
<path d="M14.6793 32.5097L6.02924 42.2697C5.35924 43.0197 5.53923 44.1597 6.39923 44.7097C6.39923 44.7097 9.59922 46.7097 10.0092 46.9597C10.4592 47.2397 11.1992 47.5497 11.9892 47.5497C12.7092 47.5497 13.3693 47.3397 13.9193 46.9897L15.9992 45.6897L10.9692 42.5397L16.0092 36.8597V31.9297C15.5192 31.9297 15.0291 32.1297 14.6891 32.5197L14.6793 32.5097Z" fill="#BCC5DC"/>
<path d="M10.959 42.5394L11.0291 42.5794L15.999 45.6894V36.8594L10.959 42.5394Z" fill="white"/>
<path d="M25.5988 44.7093C26.4688 44.1693 26.6388 43.0293 25.9688 42.2693L20.2888 35.8693C19.8288 35.6593 19.3188 35.5293 18.7688 35.5293C17.6988 35.5293 16.7488 35.9893 16.1088 36.7093L15.9788 36.8493L21.0088 42.5293L15.9688 45.6793V50.3793C16.2988 50.3793 16.6288 50.2893 16.9188 50.1093L25.5687 44.6993L25.5988 44.7093Z" fill="#2F3F64"/>
<path d="M15.999 31.9297V36.8597L16.129 36.7197C16.759 35.9997 17.7191 35.5397 18.7891 35.5397C19.3291 35.5397 19.8491 35.6597 20.3091 35.8797L17.329 32.5197C16.979 32.1297 16.499 31.9397 16.009 31.9397L15.999 31.9297Z" fill="#BCC5DC"/>
<path d="M21.0391 42.5394L15.999 36.8594V45.6894L21.0391 42.5394Z" fill="#BCC5DC"/>
<path d="M99.4097 51.5595C107.451 51.5595 113.97 45.0407 113.97 36.9995C113.97 28.9582 107.451 22.4395 99.4097 22.4395C91.3684 22.4395 84.8496 28.9582 84.8496 36.9995C84.8496 45.0407 91.3684 51.5595 99.4097 51.5595Z" fill="white"/>
<path d="M99.3999 52.5595C90.8199 52.5595 83.8398 45.5795 83.8398 36.9995C83.8398 28.4195 90.8199 21.4395 99.3999 21.4395C107.98 21.4395 114.96 28.4195 114.96 36.9995C114.96 45.5795 107.98 52.5595 99.3999 52.5595ZM99.3999 23.4395C91.9299 23.4395 85.8398 29.5195 85.8398 36.9995C85.8398 44.4795 91.9199 50.5595 99.3999 50.5595C106.88 50.5595 112.96 44.4795 112.96 36.9995C112.96 29.5195 106.88 23.4395 99.3999 23.4395Z" fill="#2F3F64"/>
<path d="M107.5 37.1895C107.5 41.8895 104.28 45.2295 99.5396 45.2295C94.7996 45.2295 91.3096 41.5495 91.3096 36.9995C91.3096 32.4495 94.9896 28.7695 99.5396 28.7695C101.76 28.7695 103.62 29.5795 105.06 30.9195L102.819 33.0695C99.8895 30.2395 94.4395 32.3695 94.4395 36.9895C94.4395 39.8595 96.7296 42.1895 99.5396 42.1895C102.8 42.1895 104.019 39.8495 104.209 38.6395H99.5396V35.8095H107.38C107.46 36.2295 107.51 36.6395 107.51 37.1795L107.5 37.1895Z" fill="#2F3F64"/>
<path d="M56.3597 30.7899C64.401 30.7899 70.9198 24.2712 70.9198 16.2299C70.9198 8.18866 64.401 1.66992 56.3597 1.66992C48.3185 1.66992 41.7998 8.18866 41.7998 16.2299C41.7998 24.2712 48.3185 30.7899 56.3597 30.7899Z" fill="white"/>
<path d="M56.3597 31.7899C47.7797 31.7899 40.7998 24.8099 40.7998 16.2299C40.7998 7.64992 47.7797 0.669922 56.3597 0.669922C64.9397 0.669922 71.9198 7.64992 71.9198 16.2299C71.9198 24.8099 64.9397 31.7899 56.3597 31.7899ZM56.3597 2.67992C48.8897 2.67992 42.7998 8.75992 42.7998 16.2399C42.7998 23.7199 48.8797 29.7999 56.3597 29.7999C63.8397 29.7999 69.9198 23.7199 69.9198 16.2399C69.9198 8.75992 63.8397 2.67992 56.3597 2.67992Z" fill="#2F3F64"/>
<path d="M61.4697 16.3395C61.4697 14.7695 62.1697 13.5795 63.6097 12.6995C62.7997 11.5495 61.5897 10.9095 59.9797 10.7895C58.4597 10.6695 56.7897 11.6795 56.1897 11.6795C55.5497 11.6795 54.0698 10.8395 52.9098 10.8395C50.5198 10.8795 47.9697 12.7495 47.9697 16.5495C47.9697 17.6695 48.1797 18.8295 48.5897 20.0295C49.1397 21.5995 51.1197 25.4595 53.1897 25.3995C54.2697 25.3695 55.0297 24.6295 56.4397 24.6295C57.8497 24.6295 58.5097 25.3995 59.7197 25.3995C61.7997 25.3695 63.5998 21.8595 64.1198 20.2795C61.3198 18.9595 61.4697 16.4195 61.4697 16.3395ZM59.0398 9.29945C60.2098 7.90945 60.0997 6.64945 60.0697 6.18945C59.0397 6.24945 57.8398 6.88945 57.1598 7.68945C56.4098 8.53945 55.9698 9.58945 56.0598 10.7695C57.1798 10.8595 58.1998 10.2795 59.0398 9.29945Z" fill="#2F3F64"/>
</svg>
