<svg viewBox="0 0 127 127" fill="none" xmlns="http://www.w3.org/2000/svg">
<g id="technical-assistance-1">
<path id="Vector" fill-rule="evenodd" clip-rule="evenodd" d="M1.0293 41.2197C1.0293 41.2197 6.07931 25.6897 8.91931 16.9797C10.0393 13.5497 13.2392 11.2197 16.8392 11.2197H84.5792C87.8692 11.2197 90.8392 13.1498 92.1892 16.1498C95.9992 24.6598 103.419 41.2197 103.419 41.2197H1.03931H1.0293Z" fill="white"/>
<path id="Vector_2" d="M103.41 42.22H1.02974C0.709743 42.22 0.409684 42.0701 0.219684 41.8101C0.0296843 41.5501 -0.0203303 41.22 0.0796697 40.91L7.96968 16.66C9.21968 12.8 12.7897 10.21 16.8497 10.21H84.5897C85.1397 10.21 85.5897 10.66 85.5897 11.21C85.5897 11.76 85.1397 12.21 84.5897 12.21H16.8497C13.6597 12.21 10.8597 14.25 9.87972 17.27L2.41976 40.21H101.88L96.4997 28.2C96.2697 27.7 96.4997 27.11 96.9997 26.88C97.4997 26.66 98.0897 26.88 98.3197 27.38L104.33 40.79C104.47 41.1 104.44 41.46 104.26 41.74C104.08 42.02 103.76 42.2 103.42 42.2L103.41 42.22Z" fill="#2F3F64"/>
<path id="Vector_3" d="M69.72 12.2197C69.17 12.2197 68.72 11.7697 68.72 11.2197V6.86975C68.72 5.62975 68.24 4.45971 67.36 3.57971C66.48 2.69971 65.3199 2.21973 64.0699 2.21973H40.36C39.12 2.21973 37.9499 2.69971 37.0699 3.57971C36.1999 4.44971 35.71 5.63975 35.71 6.86975V11.2197C35.71 11.7697 35.26 12.2197 34.71 12.2197C34.16 12.2197 33.71 11.7697 33.71 11.2197V6.86975C33.71 5.08975 34.4 3.4298 35.66 2.1698C36.91 0.9098 38.58 0.219727 40.36 0.219727H64.0699C65.8499 0.219727 67.51 0.9098 68.77 2.1698C70.03 3.4298 70.72 5.08975 70.72 6.86975V11.2197C70.72 11.7697 70.27 12.2197 69.72 12.2197Z" fill="#2F3F64"/>
<path id="Vector_4" fill-rule="evenodd" clip-rule="evenodd" d="M103.409 41.2197V79.9397C103.409 81.6497 102.729 83.2898 101.519 84.4998C100.309 85.7098 98.6692 86.3898 96.9592 86.3898H7.47925C5.76925 86.3898 4.12931 85.7098 2.91931 84.4998C1.70931 83.2898 1.0293 81.6497 1.0293 79.9397V41.2197H103.409Z" fill="#BCC5DC"/>
<path id="Vector_5" d="M96.9592 87.3898H7.47925C5.48925 87.3898 3.61923 86.6197 2.20923 85.2097C0.799229 83.7997 0.0292969 81.9297 0.0292969 79.9397V41.2197C0.0292969 40.6697 0.479297 40.2197 1.0293 40.2197H103.409C103.959 40.2197 104.409 40.6697 104.409 41.2197V79.9397C104.409 81.9297 103.629 83.7997 102.229 85.2097C100.819 86.6197 98.9492 87.3898 96.9592 87.3898ZM2.0293 42.2197V79.9397C2.0293 81.3997 2.59927 82.7698 3.62927 83.7998C4.65927 84.8298 6.02925 85.3998 7.47925 85.3998H96.9592C98.4192 85.3998 99.7793 84.8298 100.809 83.7998C101.839 82.7698 102.409 81.3997 102.409 79.9397V42.2197H2.0293Z" fill="#2F3F64"/>
<path id="Vector_6" fill-rule="evenodd" clip-rule="evenodd" d="M93.5099 82.3497C109.41 86.4597 121.17 100.9 121.17 118.08H47.3799C47.3799 100.91 59.1399 86.4597 75.0399 82.3497C75.4099 77.5697 79.4099 73.7998 84.2799 73.7998C89.1499 73.7998 93.1499 77.5697 93.5199 82.3497H93.5099Z" fill="white"/>
<path id="Vector_7" fill-rule="evenodd" clip-rule="evenodd" d="M116.87 100.8C119.61 105.95 121.16 111.84 121.16 118.07H47.3701C47.3701 100.9 59.1302 86.45 75.0302 82.34C75.4002 77.56 79.4001 73.79 84.2701 73.79C89.1401 73.79 93.1401 77.56 93.5101 82.34C97.4301 83.35 101.11 85 104.41 87.16" fill="#FEC95C"/>
<path id="Vector_8" d="M121.17 119.08H47.3799C46.8299 119.08 46.3799 118.63 46.3799 118.08C46.3799 101.02 57.7499 86.1098 74.1199 81.5598C74.8599 76.5998 79.1799 72.7998 84.2699 72.7998C89.3599 72.7998 93.6899 76.5898 94.4299 81.5598C98.1699 82.5998 101.71 84.1997 104.97 86.3297C105.43 86.6297 105.56 87.2497 105.26 87.7097C104.96 88.1697 104.34 88.2998 103.88 87.9998C100.61 85.8598 97.0399 84.2898 93.2699 83.3098C92.8599 83.1998 92.5599 82.8498 92.5199 82.4198C92.1899 78.1498 88.5699 74.7998 84.2799 74.7998C79.9899 74.7998 76.3699 78.1498 76.0399 82.4198C76.0099 82.8498 75.7099 83.2098 75.2899 83.3098C59.7699 87.3198 48.8299 101.12 48.3999 117.07H120.16C120 111.56 118.57 106.11 116 101.26C115.74 100.77 115.93 100.17 116.41 99.9098C116.9 99.6498 117.5 99.8297 117.76 100.32C120.64 105.75 122.17 111.88 122.17 118.06C122.17 118.61 121.72 119.06 121.17 119.06V119.08Z" fill="#2F3F64"/>
<path id="Vector_9" d="M124.439 118.08H44.0995C43.249 118.08 42.5596 118.77 42.5596 119.62V124.27C42.5596 125.121 43.249 125.81 44.0995 125.81H124.439C125.29 125.81 125.979 125.121 125.979 124.27V119.62C125.979 118.77 125.29 118.08 124.439 118.08Z" fill="#FEC95C"/>
<path id="Vector_10" d="M124.439 126.8H44.1094C42.7094 126.8 41.5693 125.66 41.5693 124.26V119.63C41.5693 118.23 42.7094 117.09 44.1094 117.09H124.439C125.839 117.09 126.979 118.23 126.979 119.63V124.26C126.979 125.66 125.839 126.8 124.439 126.8ZM44.0994 119.08C43.7994 119.08 43.5594 119.32 43.5594 119.62V124.25C43.5594 124.55 43.7994 124.79 44.0994 124.79H124.429C124.729 124.79 124.969 124.55 124.969 124.25V119.62C124.969 119.32 124.729 119.08 124.429 119.08H44.0994Z" fill="#2F3F64"/>
<path id="Vector_11" d="M74.8496 103.27C74.2996 103.27 73.8496 102.82 73.8496 102.27V82.2402C73.8496 81.6902 74.2996 81.2402 74.8496 81.2402C75.3996 81.2402 75.8496 81.6902 75.8496 82.2402V102.27C75.8496 102.82 75.3996 103.27 74.8496 103.27Z" fill="#2F3F64"/>
<path id="Vector_12" d="M64.5898 109.06C64.0398 109.06 63.5898 108.61 63.5898 108.06V87.5C63.5898 86.95 64.0398 86.5 64.5898 86.5C65.1398 86.5 65.5898 86.95 65.5898 87.5V108.06C65.5898 108.61 65.1398 109.06 64.5898 109.06Z" fill="#2F3F64"/>
<path id="Vector_13" d="M103.949 109.06C103.399 109.06 102.949 108.61 102.949 108.06V87.5C102.949 86.95 103.399 86.5 103.949 86.5C104.499 86.5 104.949 86.95 104.949 87.5V108.06C104.949 108.61 104.499 109.06 103.949 109.06Z" fill="#2F3F64"/>
<path id="Vector_14" d="M93.4697 103.27C92.9197 103.27 92.4697 102.82 92.4697 102.27V82.2402C92.4697 81.6902 92.9197 81.2402 93.4697 81.2402C94.0197 81.2402 94.4697 81.6902 94.4697 82.2402V102.27C94.4697 102.82 94.0197 103.27 93.4697 103.27Z" fill="#2F3F64"/>
<path id="Vector_15" d="M23.4102 31.2197H13.4102V51.2197H23.4102V31.2197Z" fill="#BCC5DC"/>
<path id="Vector_16" d="M23.4102 52.2197H13.4102C12.8602 52.2197 12.4102 51.7697 12.4102 51.2197V31.2197C12.4102 30.6697 12.8602 30.2197 13.4102 30.2197H23.4102C23.9602 30.2197 24.4102 30.6697 24.4102 31.2197V51.2197C24.4102 51.7697 23.9602 52.2197 23.4102 52.2197ZM14.4102 50.2197H22.4102V32.2197H14.4102V50.2197Z" fill="#2F3F64"/>
<path id="Vector_17" d="M91.4102 31.2197H81.4102V51.2197H91.4102V31.2197Z" fill="#BCC5DC"/>
<path id="Vector_18" d="M91.4102 52.2197H81.4102C80.8602 52.2197 80.4102 51.7697 80.4102 51.2197V31.2197C80.4102 30.6697 80.8602 30.2197 81.4102 30.2197H91.4102C91.9602 30.2197 92.4102 30.6697 92.4102 31.2197V51.2197C92.4102 51.7697 91.9602 52.2197 91.4102 52.2197ZM82.4102 50.2197H90.4102V32.2197H82.4102V50.2197Z" fill="#2F3F64"/>
</g>
</svg>
